<svg width="1200" height="630" viewBox="0 0 1200 630" xmlns="http://www.w3.org/2000/svg"><mask id="satori_om-id"><rect x="0" y="0" width="1200" height="630" fill="#fff"/></mask><rect x="0" y="0" width="1200" height="630" fill="#171410"/><mask id="satori_om-id-0"><rect x="760" y="-200" width="640" height="640" fill="#fff"/></mask><g opacity="0.1"><path x="760" y="-200" width="640" height="640" fill="#C05728" d="M1080,-200 h0 a320,320 0 0 1 320,320 v0 a320,320 0 0 1 -320,320 h0 a320,320 0 0 1 -320,-320 v0 a320,320 0 0 1 320,-320"/></g><defs><clipPath id="satori_bc-id-1"><path x="940" y="360" width="120" height="120" d="M1000,360 h0 a60,60 0 0 1 60,60 v0 a60,60 0 0 1 -60,60 h0 a60,60 0 0 1 -60,-60 v0 a60,60 0 0 1 60,-60"/></clipPath></defs><mask id="satori_om-id-1"><rect x="942" y="362" width="116" height="116" fill="#fff"/><path width="120" height="120" fill="none" stroke="#000" stroke-width="4" d="M957.574,377.574 A60,60 0 0 1 1000,360 h0 a60,60 0 0 1 60,60 v0 a60,60 0 0 1 -60,60 h0 a60,60 0 0 1 -60,-60 v0 A60,60 0 0 1 957.574,377.574"/></mask><g opacity="0.28"><path width="120" height="120" clip-path="url(#satori_bc-id-1)" fill="none" stroke="#C05728" stroke-width="4" d="M957.574,377.574 A60,60 0 0 1 1000,360 h0 a60,60 0 0 1 60,60 v0 a60,60 0 0 1 -60,60 h0 a60,60 0 0 1 -60,-60 v0 A60,60 0 0 1 957.574,377.574"/></g><mask id="satori_om-id-2"><rect x="80" y="72" width="1040" height="64" fill="#fff"/></mask><defs><clipPath id="satori_bc-id-2-0"><path x="80" y="72" width="64" height="64" d="M94,72 h36 a14,14 0 0 1 14,14 v36 a14,14 0 0 1 -14,14 h-36 a14,14 0 0 1 -14,-14 v-36 a14,14 0 0 1 14,-14"/></clipPath></defs><mask id="satori_om-id-2-0"><rect x="81.5" y="73.5" width="61" height="61" fill="#fff"/><path width="64" height="64" fill="none" stroke="#000" stroke-width="3" d="M84.101,76.101 A14,14 0 0 1 94,72 h36 a14,14 0 0 1 14,14 v36 a14,14 0 0 1 -14,14 h-36 a14,14 0 0 1 -14,-14 v-36 A14,14 0 0 1 84.101,76.101"/></mask><path x="80" y="72" width="64" height="64" fill="#0E0C0A" d="M94,72 h36 a14,14 0 0 1 14,14 v36 a14,14 0 0 1 -14,14 h-36 a14,14 0 0 1 -14,-14 v-36 a14,14 0 0 1 14,-14"/><path width="64" height="64" clip-path="url(#satori_bc-id-2-0)" fill="none" stroke="rgba(192, 87, 40, 0.45)" stroke-width="3" d="M84.101,76.101 A14,14 0 0 1 94,72 h36 a14,14 0 0 1 14,14 v36 a14,14 0 0 1 -14,14 h-36 a14,14 0 0 1 -14,-14 v-36 A14,14 0 0 1 84.101,76.101"/><g  ><path fill="#C05728" d="M105.1 129L101.4 129L101.4 96L104.9 96L104.9 99.8L105.4 99.8Q105.8 99.2 106.5 98.2Q107.2 97.2 108.6 96.5Q110.0 95.7 112.3 95.7L112.3 95.7Q115.3 95.7 117.7 97.2Q120.0 98.7 121.3 101.5Q122.6 104.3 122.6 108.1L122.6 108.1Q122.6 111.9 121.3 114.7Q120.0 117.5 117.7 119.0Q115.4 120.5 112.4 120.5L112.4 120.5Q110.1 120.5 108.7 119.7Q107.3 119.0 106.5 118.0Q105.8 117.0 105.4 116.3L105.4 116.3L105.1 116.3L105.1 129ZM105 108L105 108Q105 110.7 105.8 112.8Q106.6 114.9 108.1 116.0Q109.7 117.2 111.9 117.2L111.9 117.2Q114.2 117.2 115.7 116.0Q117.3 114.7 118.1 112.6Q118.9 110.6 118.9 108L118.9 108Q118.9 105.5 118.1 103.4Q117.3 101.4 115.8 100.2Q114.2 99 111.9 99L111.9 99Q109.6 99 108.1 100.1Q106.6 101.3 105.8 103.3Q105 105.3 105 108Z "/></g><mask id="satori_om-id-2-1"><rect x="162" y="90" width="189" height="29" fill="#fff"/></mask><g  ><path fill="#B8B0A8" d="M165.9 113L163.8 113L163.8 99.9L165.8 99.9L165.8 102.0L166.0 102.0Q166.4 100.9 167.3 100.3Q168.2 99.7 169.5 99.7L169.5 99.7Q170.8 99.7 171.6 100.3Q172.5 100.9 173.0 102.0L173.0 102.0L173.1 102.0Q173.6 100.9 174.6 100.3Q175.6 99.7 177.0 99.7L177.0 99.7Q178.8 99.7 179.9 100.8Q181.0 101.9 181.0 104.2L181.0 104.2L181.0 113L179.0 113L179.0 104.2Q179.0 102.8 178.2 102.2Q177.4 101.5 176.4 101.5L176.4 101.5Q175.0 101.5 174.2 102.4Q173.5 103.2 173.5 104.5L173.5 104.5L173.5 113L171.4 113L171.4 104.0Q171.4 102.9 170.7 102.2Q170.0 101.5 168.8 101.5L168.8 101.5Q168.0 101.5 167.4 102.0Q166.7 102.4 166.3 103.1Q165.9 103.9 165.9 104.8L165.9 104.8L165.9 113ZM189.5 113.3L189.5 113.3Q188.3 113.3 187.3 112.8Q186.2 112.4 185.6 111.5Q185.1 110.6 185.1 109.3L185.1 109.3Q185.1 108.2 185.5 107.5Q185.9 106.8 186.7 106.4Q187.4 106.0 188.3 105.8Q189.2 105.6 190.1 105.4L190.1 105.4Q191.3 105.3 192.1 105.2Q192.8 105.1 193.2 104.9Q193.5 104.7 193.5 104.2L193.5 104.2L193.5 104.2Q193.5 102.9 192.8 102.2Q192.1 101.5 190.7 101.5L190.7 101.5Q189.3 101.5 188.5 102.1Q187.7 102.8 187.3 103.5L187.3 103.5L185.4 102.8Q185.9 101.6 186.8 100.9Q187.7 100.3 188.7 100.0Q189.7 99.7 190.7 99.7L190.7 99.7Q191.3 99.7 192.1 99.9Q193.0 100.0 193.7 100.5Q194.5 101.0 195.0 101.9Q195.5 102.8 195.5 104.4L195.5 104.4L195.5 113L193.5 113L193.5 111.2L193.4 111.2Q193.2 111.7 192.7 112.1Q192.2 112.6 191.5 113.0Q190.7 113.3 189.5 113.3ZM189.8 111.5L189.8 111.5Q191.0 111.5 191.8 111.0Q192.7 110.6 193.1 109.8Q193.5 109.1 193.5 108.3L193.5 108.3L193.5 106.4Q193.4 106.6 192.9 106.7Q192.5 106.8 192.0 106.9Q191.4 107 190.9 107.1Q190.4 107.1 190.0 107.2L190.0 107.2Q189.2 107.3 188.6 107.5Q187.9 107.7 187.5 108.2Q187.1 108.6 187.1 109.4L187.1 109.4Q187.1 110.4 187.8 111.0Q188.6 111.5 189.8 111.5ZM205.1 113.3L205.1 113.3Q203.5 113.3 202.2 112.4Q201.0 111.6 200.3 110.1Q199.5 108.6 199.5 106.5L199.5 106.5Q199.5 104.4 200.3 102.9Q201.0 101.4 202.2 100.6Q203.5 99.7 205.1 99.7L205.1 99.7Q206.4 99.7 207.2 100.2Q207.9 100.6 208.3 101.1Q208.7 101.6 208.9 102.0L208.9 102.0L209.1 102.0L209.1 95.5L211.1 95.5L211.1 113L209.2 113L209.2 111.0L208.9 111.0Q208.7 111.3 208.3 111.9Q207.9 112.4 207.1 112.9Q206.4 113.3 205.1 113.3ZM205.4 111.5L205.4 111.5Q206.6 111.5 207.4 110.8Q208.3 110.2 208.7 109.1Q209.1 107.9 209.1 106.5L209.1 106.5Q209.1 105.0 208.7 103.9Q208.3 102.8 207.4 102.2Q206.6 101.5 205.4 101.5L205.4 101.5Q204.1 101.5 203.2 102.2Q202.4 102.8 202.0 104.0Q201.6 105.1 201.6 106.5L201.6 106.5Q201.6 107.9 202.0 109.0Q202.4 110.1 203.3 110.8Q204.1 111.5 205.4 111.5ZM221.5 113.3L221.5 113.3Q219.6 113.3 218.2 112.4Q216.9 111.6 216.1 110.1Q215.4 108.6 215.4 106.6L215.4 106.6Q215.4 104.5 216.1 103.0Q216.9 101.5 218.2 100.6Q219.5 99.7 221.3 99.7L221.3 99.7Q222.3 99.7 223.3 100.1Q224.3 100.4 225.1 101.2Q226.0 101.9 226.4 103.2Q226.9 104.5 226.9 106.3L226.9 106.3L226.9 107.1L216.8 107.1L216.8 105.4L224.9 105.4Q224.9 104.3 224.4 103.4Q224.0 102.6 223.2 102.0Q222.4 101.5 221.3 101.5L221.3 101.5Q220.1 101.5 219.2 102.1Q218.4 102.7 217.9 103.7Q217.4 104.6 217.4 105.7L217.4 105.7L217.4 106.9Q217.4 108.3 217.9 109.4Q218.4 110.4 219.4 110.9Q220.3 111.5 221.5 111.5L221.5 111.5Q222.3 111.5 222.9 111.2Q223.6 111.0 224.1 110.6Q224.5 110.1 224.8 109.4L224.8 109.4L226.7 110.0Q226.4 111.0 225.7 111.7Q225.0 112.4 223.9 112.9Q222.8 113.3 221.5 113.3ZM233.2 113L231.2 113L231.2 95.5L233.2 95.5L233.2 102.0L233.4 102.0Q233.6 101.6 234.0 101.1Q234.4 100.6 235.2 100.2Q235.9 99.7 237.2 99.7L237.2 99.7Q238.8 99.7 240.1 100.6Q241.4 101.4 242.1 102.9Q242.8 104.4 242.8 106.5L242.8 106.5Q242.8 108.6 242.1 110.1Q241.4 111.6 240.1 112.4Q238.9 113.3 237.2 113.3L237.2 113.3Q236.0 113.3 235.2 112.9Q234.4 112.4 234.0 111.9Q233.6 111.3 233.4 111.0L233.4 111.0L233.2 111.0L233.2 113ZM233.2 106.5L233.2 106.5Q233.2 107.9 233.6 109.1Q234.1 110.2 234.9 110.8Q235.7 111.5 237.0 111.5L237.0 111.5Q238.2 111.5 239.1 110.8Q239.9 110.1 240.3 109.0Q240.8 107.9 240.8 106.5L240.8 106.5Q240.8 105.1 240.3 104.0Q239.9 102.8 239.1 102.2Q238.2 101.5 237.0 101.5L237.0 101.5Q235.7 101.5 234.9 102.2Q234.1 102.8 233.6 103.9Q233.2 105.0 233.2 106.5ZM247.6 117.9L247.6 117.9Q247.1 117.9 246.7 117.8Q246.3 117.7 246.2 117.7L246.2 117.7L246.7 115.9Q247.4 116.1 248.0 116.0Q248.5 116.0 249.0 115.5Q249.4 115.1 249.8 114.1L249.8 114.1L250.2 113.1L245.3 99.9L247.5 99.9L251.1 110.3L251.2 110.3L254.9 99.9L257.0 99.9L251.5 114.9Q251.1 115.9 250.6 116.6Q250.0 117.3 249.3 117.6Q248.5 117.9 247.6 117.9ZM262.7 117.9L260.7 117.9L260.7 99.9L262.6 99.9L262.6 102.0L262.8 102.0Q263.1 101.6 263.5 101.1Q263.9 100.6 264.6 100.2Q265.3 99.7 266.6 99.7L266.6 99.7Q268.3 99.7 269.5 100.6Q270.8 101.4 271.5 102.9Q272.2 104.4 272.2 106.5L272.2 106.5Q272.2 108.6 271.5 110.1Q270.8 111.6 269.5 112.4Q268.3 113.3 266.7 113.3L266.7 113.3Q265.4 113.3 264.6 112.9Q263.9 112.4 263.5 111.9Q263.1 111.3 262.8 111.0L262.8 111.0L262.7 111.0L262.7 117.9ZM262.6 106.5L262.6 106.5Q262.6 107.9 263.1 109.1Q263.5 110.2 264.3 110.8Q265.2 111.5 266.4 111.5L266.4 111.5Q267.6 111.5 268.5 110.8Q269.3 110.1 269.8 109.0Q270.2 107.9 270.2 106.5L270.2 106.5Q270.2 105.1 269.8 104.0Q269.4 102.8 268.5 102.2Q267.7 101.5 266.4 101.5L266.4 101.5Q265.2 101.5 264.3 102.2Q263.5 102.8 263.1 103.9Q262.6 105.0 262.6 106.5ZM280.1 113.3L280.1 113.3Q278.9 113.3 277.8 112.8Q276.8 112.4 276.2 111.5Q275.6 110.6 275.6 109.3L275.6 109.3Q275.6 108.2 276.1 107.5Q276.5 106.8 277.3 106.4Q278.0 106.0 278.9 105.8Q279.8 105.6 280.7 105.4L280.7 105.4Q281.9 105.3 282.6 105.2Q283.4 105.1 283.7 104.9Q284.1 104.7 284.1 104.2L284.1 104.2L284.1 104.2Q284.1 102.9 283.4 102.2Q282.7 101.5 281.3 101.5L281.3 101.5Q279.9 101.5 279.1 102.1Q278.2 102.8 277.9 103.5L277.9 103.5L276.0 102.8Q276.5 101.6 277.4 100.9Q278.2 100.3 279.2 100.0Q280.3 99.7 281.3 99.7L281.3 99.7Q281.9 99.7 282.7 99.9Q283.5 100.0 284.3 100.5Q285.1 101.0 285.6 101.9Q286.1 102.8 286.1 104.4L286.1 104.4L286.1 113L284.1 113L284.1 111.2L284.0 111.2Q283.8 111.7 283.3 112.1Q282.8 112.6 282.0 113.0Q281.2 113.3 280.1 113.3ZM280.4 111.5L280.4 111.5Q281.6 111.5 282.4 111.0Q283.2 110.6 283.7 109.8Q284.1 109.1 284.1 108.3L284.1 108.3L284.1 106.4Q284.0 106.6 283.5 106.7Q283.1 106.8 282.5 106.9Q282.0 107 281.5 107.1Q280.9 107.1 280.6 107.2L280.6 107.2Q279.8 107.3 279.1 107.5Q278.5 107.7 278.1 108.2Q277.6 108.6 277.6 109.4L277.6 109.4Q277.6 110.4 278.4 111.0Q279.2 111.5 280.4 111.5ZM296.1 113.3L296.1 113.3Q294.3 113.3 292.9 112.4Q291.6 111.6 290.9 110.1Q290.1 108.6 290.1 106.5L290.1 106.5Q290.1 104.5 290.9 103.0Q291.6 101.4 292.9 100.6Q294.3 99.7 296.1 99.7L296.1 99.7Q297.8 99.7 299.2 100.6Q300.5 101.4 301.2 103.0Q302.0 104.5 302.0 106.5L302.0 106.5Q302.0 108.6 301.2 110.1Q300.5 111.6 299.2 112.4Q297.8 113.3 296.1 113.3ZM296.1 111.5L296.1 111.5Q297.4 111.5 298.3 110.8Q299.1 110.1 299.6 109.0Q300.0 107.8 300.0 106.5L300.0 106.5Q300.0 105.2 299.6 104.1Q299.1 102.9 298.3 102.2Q297.4 101.5 296.1 101.5L296.1 101.5Q294.7 101.5 293.8 102.2Q293.0 102.9 292.6 104.1Q292.1 105.2 292.1 106.5L292.1 106.5Q292.1 107.8 292.6 109.0Q293.0 110.1 293.8 110.8Q294.7 111.5 296.1 111.5ZM306.0 95.5L308.0 95.5L308.0 113L306.0 113L306.0 95.5ZM318.0 113.3L318.0 113.3Q316.2 113.3 314.9 112.4Q313.5 111.6 312.8 110.1Q312.1 108.6 312.1 106.5L312.1 106.5Q312.1 104.5 312.8 103.0Q313.5 101.4 314.9 100.6Q316.2 99.7 318.0 99.7L318.0 99.7Q319.8 99.7 321.1 100.6Q322.4 101.4 323.2 103.0Q323.9 104.5 323.9 106.5L323.9 106.5Q323.9 108.6 323.2 110.1Q322.4 111.6 321.1 112.4Q319.8 113.3 318.0 113.3ZM318.0 111.5L318.0 111.5Q319.3 111.5 320.2 110.8Q321.1 110.1 321.5 109.0Q321.9 107.8 321.9 106.5L321.9 106.5Q321.9 105.2 321.5 104.1Q321.1 102.9 320.2 102.2Q319.3 101.5 318.0 101.5L318.0 101.5Q316.6 101.5 315.8 102.2Q314.9 102.9 314.5 104.1Q314.1 105.2 314.1 106.5L314.1 106.5Q314.1 107.8 314.5 109.0Q314.9 110.1 315.8 110.8Q316.6 111.5 318.0 111.5ZM329.4 113.1L329.4 113.1Q328.8 113.1 328.3 112.7Q327.9 112.2 327.9 111.6L327.9 111.6Q327.9 111.0 328.3 110.5Q328.8 110.1 329.4 110.1L329.4 110.1Q330.0 110.1 330.5 110.5Q330.9 111.0 330.9 111.6L330.9 111.6Q330.9 112.0 330.7 112.4Q330.5 112.7 330.2 112.9Q329.8 113.1 329.4 113.1ZM337.5 113L335.5 113L335.5 99.9L337.5 99.9L337.5 113ZM336.5 97.7L336.5 97.7Q336.0 97.7 335.5 97.3Q335.1 96.9 335.1 96.4L335.1 96.4Q335.1 95.8 335.5 95.4Q336.0 95 336.5 95L336.5 95Q337.1 95 337.6 95.4Q338.0 95.8 338.0 96.4L338.0 96.4Q338.0 96.9 337.6 97.3Q337.1 97.7 336.5 97.7ZM341.1 99.9L347.9 99.9L347.9 101.6L341.1 101.6L341.1 99.9ZM343.1 109.8L343.1 96.8L345.1 96.8L345.1 109.3Q345.1 110.1 345.3 110.5Q345.6 110.9 346.0 111.1Q346.4 111.2 346.8 111.2L346.8 111.2Q347.1 111.2 347.4 111.2Q347.6 111.2 347.7 111.1L347.7 111.1L348.1 112.9Q347.9 113.0 347.5 113.1Q347.2 113.2 346.6 113.2L346.6 113.2Q345.8 113.2 344.9 112.8Q344.1 112.4 343.6 111.7Q343.1 110.9 343.1 109.8L343.1 109.8Z "/></g><mask id="satori_om-id-3"><rect x="80" y="238" width="1040" height="190" fill="#fff"/></mask><mask id="satori_om-id-3-0"><rect x="80" y="238" width="1040" height="118" fill="#fff"/></mask><mask id="satori_om-id-3-0-0"><rect x="80" y="238" width="458" height="118" fill="#fff"/></mask><g  ><path fill="#F7F5F1" d="M90.2 339L90.2 254.6L102.4 254.6L131.1 324.7L132.1 324.7L160.7 254.6L172.9 254.6L172.9 339L163.4 339L163.4 274.9L162.6 274.9L136.2 339L127.0 339L100.6 274.9L99.8 274.9L99.8 339L90.2 339ZM207.8 340.5L207.8 340.5Q201.8 340.5 196.8 338.2Q191.9 335.9 189.1 331.6Q186.2 327.2 186.2 321.0L186.2 321.0Q186.2 315.6 188.3 312.2Q190.5 308.8 194.0 306.9Q197.6 304.9 202.0 304.0Q206.3 303.0 210.7 302.4L210.7 302.4Q216.5 301.7 220.1 301.3Q223.7 300.9 225.4 299.9Q227.0 299.0 227.0 296.7L227.0 296.7L227.0 296.3Q227.0 290.2 223.7 286.8Q220.4 283.5 213.7 283.5L213.7 283.5Q206.7 283.5 202.8 286.5Q198.8 289.6 197.2 293.0L197.2 293.0L188.0 289.7Q190.5 284.0 194.6 280.7Q198.7 277.5 203.7 276.2Q208.6 274.9 213.4 274.9L213.4 274.9Q216.4 274.9 220.4 275.6Q224.4 276.3 228.1 278.6Q231.8 280.8 234.3 285.3Q236.8 289.8 236.8 297.3L236.8 297.3L236.8 339L227.0 339L227.0 330.4L226.5 330.4Q225.6 332.5 223.3 334.8Q220.9 337.2 217.1 338.8Q213.3 340.5 207.8 340.5ZM209.2 331.8L209.2 331.8Q215.0 331.8 219.0 329.5Q223.0 327.2 225.0 323.6Q227.0 320.1 227.0 316.1L227.0 316.1L227.0 307.2Q226.4 307.9 224.3 308.5Q222.3 309.1 219.6 309.6Q216.9 310 214.3 310.3Q211.8 310.6 210.2 310.8L210.2 310.8Q206.4 311.3 203.2 312.4Q199.9 313.5 197.9 315.7Q195.9 317.8 195.9 321.5L195.9 321.5Q195.9 326.6 199.7 329.2Q203.4 331.8 209.2 331.8ZM275.6 340.3L275.6 340.3Q267.6 340.3 261.6 336.3Q255.5 332.3 252.1 324.9Q248.7 317.6 248.7 307.5L248.7 307.5Q248.7 297.6 252.1 290.2Q255.5 282.9 261.6 278.9Q267.7 274.9 275.7 274.9L275.7 274.9Q281.9 274.9 285.5 276.9Q289.1 279.0 291.0 281.6Q292.9 284.1 294.0 285.8L294.0 285.8L294.8 285.8L294.8 254.6L304.6 254.6L304.6 339L295.2 339L295.2 329.3L294.0 329.3Q292.9 331.0 291.0 333.6Q289.0 336.2 285.3 338.3Q281.6 340.3 275.6 340.3ZM276.9 331.6L276.9 331.6Q282.7 331.6 286.8 328.5Q290.8 325.4 292.9 320.0Q295.0 314.5 295.0 307.4L295.0 307.4Q295.0 300.3 292.9 294.9Q290.9 289.6 286.8 286.6Q282.8 283.6 276.9 283.6L276.9 283.6Q270.7 283.6 266.6 286.8Q262.5 289.9 260.5 295.3Q258.4 300.7 258.4 307.4L258.4 307.4Q258.4 314.1 260.5 319.6Q262.6 325.1 266.7 328.4Q270.8 331.6 276.9 331.6ZM347.3 340.3L347.3 340.3Q338.1 340.3 331.5 336.3Q324.9 332.2 321.4 324.9Q317.8 317.6 317.8 307.9L317.8 307.9Q317.8 298.1 321.4 290.7Q324.9 283.3 331.3 279.1Q337.7 274.9 346.3 274.9L346.3 274.9Q351.2 274.9 356.1 276.6Q360.9 278.2 364.8 281.9Q368.8 285.6 371.1 291.6Q373.5 297.7 373.5 306.5L373.5 306.5L373.5 310.7L324.7 310.7L324.7 302.3L363.6 302.3Q363.6 296.9 361.5 292.7Q359.4 288.5 355.5 286.1Q351.6 283.6 346.3 283.6L346.3 283.6Q340.5 283.6 336.3 286.5Q332.1 289.4 329.8 293.9Q327.5 298.5 327.5 303.7L327.5 303.7L327.5 309.3Q327.5 316.5 330.0 321.5Q332.5 326.4 337.0 329.0Q341.4 331.6 347.3 331.6L347.3 331.6Q351.1 331.6 354.2 330.5Q357.3 329.4 359.6 327.2Q361.9 325.0 363.1 321.7L363.1 321.7L372.5 324.3Q371.0 329.1 367.5 332.7Q364.0 336.3 358.9 338.3Q353.7 340.3 347.3 340.3Z M425.9 339L416.5 339L416.5 254.6L426.2 254.6L426.2 285.8L427.0 285.8Q428.1 284.1 430.0 281.6Q431.9 279.0 435.5 276.9Q439.1 274.9 445.3 274.9L445.3 274.9Q453.3 274.9 459.4 278.9Q465.5 282.9 468.9 290.2Q472.3 297.6 472.3 307.5L472.3 307.5Q472.3 317.6 468.9 324.9Q465.5 332.3 459.4 336.3Q453.4 340.3 445.5 340.3L445.5 340.3Q439.4 340.3 435.7 338.3Q432.0 336.2 430.1 333.6Q428.1 331.0 427.0 329.3L427.0 329.3L425.9 329.3L425.9 339ZM426.0 307.4L426.0 307.4Q426.0 314.5 428.1 320.0Q430.2 325.4 434.3 328.5Q438.3 331.6 444.1 331.6L444.1 331.6Q450.2 331.6 454.3 328.4Q458.4 325.1 460.5 319.6Q462.6 314.1 462.6 307.4L462.6 307.4Q462.6 300.7 460.6 295.3Q458.5 289.9 454.4 286.8Q450.3 283.6 444.1 283.6L444.1 283.6Q438.2 283.6 434.2 286.6Q430.1 289.6 428.1 294.9Q426.0 300.3 426.0 307.4ZM488.2 362.7L488.2 362.7Q485.7 362.7 483.8 362.3Q481.9 361.9 481.1 361.6L481.1 361.6L483.6 353.0Q487.1 353.9 489.9 353.7Q492.6 353.4 494.7 351.3Q496.8 349.1 498.6 344.3L498.6 344.3L500.4 339.3L477.0 275.7L487.5 275.7L505.0 326.1L505.7 326.1L523.1 275.7L533.7 275.7L506.8 348.2Q505.0 353.1 502.3 356.4Q499.7 359.6 496.1 361.2Q492.6 362.7 488.2 362.7Z "/></g><mask id="satori_om-id-3-0-1"><rect x="562" y="238" width="291" height="118" fill="#fff"/></mask><g  ><path fill="#C05728" d="M582.4 339L572.2 339L572.2 254.6L600.7 254.6Q610.6 254.6 617.0 258.2Q623.3 261.8 626.3 267.8Q629.4 273.9 629.4 281.3L629.4 281.3Q629.4 288.8 626.4 294.9Q623.3 301.0 617.0 304.6Q610.7 308.2 600.9 308.2L600.9 308.2L580.5 308.2L580.5 299.1L600.6 299.1Q607.4 299.1 611.5 296.8Q615.6 294.4 617.5 290.4Q619.3 286.4 619.3 281.3L619.3 281.3Q619.3 276.3 617.5 272.3Q615.6 268.3 611.4 266.0Q607.3 263.7 600.4 263.7L600.4 263.7L582.4 263.7L582.4 339ZM660.3 340.5L660.3 340.5Q654.3 340.5 649.4 338.2Q644.5 335.9 641.6 331.6Q638.7 327.2 638.7 321.0L638.7 321.0Q638.7 315.6 640.8 312.2Q643.0 308.8 646.6 306.9Q650.1 304.9 654.5 304.0Q658.8 303.0 663.2 302.4L663.2 302.4Q669.0 301.7 672.6 301.3Q676.2 300.9 677.9 299.9Q679.5 299.0 679.5 296.7L679.5 296.7L679.5 296.3Q679.5 290.2 676.2 286.8Q672.9 283.5 666.2 283.5L666.2 283.5Q659.2 283.5 655.3 286.5Q651.3 289.6 649.7 293.0L649.7 293.0L640.5 289.7Q643.0 284.0 647.1 280.7Q651.2 277.5 656.2 276.2Q661.1 274.9 665.9 274.9L665.9 274.9Q668.9 274.9 672.9 275.6Q676.9 276.3 680.6 278.6Q684.3 280.8 686.8 285.3Q689.3 289.8 689.3 297.3L689.3 297.3L689.3 339L679.5 339L679.5 330.4L679.1 330.4Q678.1 332.5 675.8 334.8Q673.5 337.2 669.6 338.8Q665.8 340.5 660.3 340.5ZM661.8 331.8L661.8 331.8Q667.5 331.8 671.5 329.5Q675.5 327.2 677.5 323.6Q679.5 320.1 679.5 316.1L679.5 316.1L679.5 307.2Q678.9 307.9 676.9 308.5Q674.8 309.1 672.1 309.6Q669.4 310 666.8 310.3Q664.3 310.6 662.7 310.8L662.7 310.8Q659.0 311.3 655.7 312.4Q652.4 313.5 650.4 315.7Q648.4 317.8 648.4 321.5L648.4 321.5Q648.4 326.6 652.2 329.2Q655.9 331.8 661.8 331.8ZM729.9 340.3L729.9 340.3Q721.3 340.3 714.9 336.2Q708.4 332.2 704.8 324.8Q701.2 317.5 701.2 307.7L701.2 307.7Q701.2 297.8 704.8 290.4Q708.4 283.1 714.9 279.0Q721.3 274.9 729.9 274.9L729.9 274.9Q738.4 274.9 744.9 279.0Q751.3 283.1 754.9 290.4Q758.5 297.8 758.5 307.7L758.5 307.7Q758.5 317.5 754.9 324.8Q751.3 332.2 744.9 336.2Q738.4 340.3 729.9 340.3ZM729.9 331.6L729.9 331.6Q736.4 331.6 740.6 328.2Q744.8 324.9 746.8 319.5Q748.8 314.0 748.8 307.7L748.8 307.7Q748.8 301.3 746.8 295.9Q744.8 290.4 740.6 287.0Q736.4 283.6 729.9 283.6L729.9 283.6Q723.4 283.6 719.2 287.0Q715.0 290.4 712.9 295.9Q710.9 301.3 710.9 307.7L710.9 307.7Q710.9 314.0 712.9 319.5Q715.0 324.9 719.2 328.2Q723.4 331.6 729.9 331.6ZM770.5 254.6L780.2 254.6L780.2 339L770.5 339L770.5 254.6ZM820.8 340.3L820.8 340.3Q812.2 340.3 805.8 336.2Q799.3 332.2 795.7 324.8Q792.1 317.5 792.1 307.7L792.1 307.7Q792.1 297.8 795.7 290.4Q799.3 283.1 805.8 279.0Q812.2 274.9 820.8 274.9L820.8 274.9Q829.4 274.9 835.8 279.0Q842.3 283.1 845.9 290.4Q849.5 297.8 849.5 307.7L849.5 307.7Q849.5 317.5 845.9 324.8Q842.3 332.2 835.8 336.2Q829.4 340.3 820.8 340.3ZM820.8 331.6L820.8 331.6Q827.3 331.6 831.5 328.2Q835.7 324.9 837.7 319.5Q839.7 314.0 839.7 307.7L839.7 307.7Q839.7 301.3 837.7 295.9Q835.7 290.4 831.5 287.0Q827.3 283.6 820.8 283.6L820.8 283.6Q814.3 283.6 810.1 287.0Q805.9 290.4 803.9 295.9Q801.8 301.3 801.8 307.7L801.8 307.7Q801.8 314.0 803.9 319.5Q805.9 324.9 810.1 328.2Q814.3 331.6 820.8 331.6Z "/></g><mask id="satori_om-id-3-1"><rect x="80" y="380" width="1040" height="48" fill="#fff"/></mask><g  ><path fill="#B8B0A8" d="M92.4 419L88.8 419L80.9 389.9L84.4 389.9L90.5 413.6L90.8 413.6L97.0 389.9L101.0 389.9L107.2 413.6L107.4 413.6L113.5 389.9L117.1 389.9L109.1 419L105.5 419L99.1 395.8L98.9 395.8L92.4 419ZM128.1 419.5L128.1 419.5Q125.0 419.5 122.7 418.1Q120.4 416.7 119.2 414.1Q118.0 411.6 118.0 408.3L118.0 408.3Q118.0 404.9 119.2 402.3Q120.4 399.8 122.6 398.3Q124.8 396.9 127.8 396.9L127.8 396.9Q129.5 396.9 131.2 397.5Q132.8 398.0 134.2 399.3Q135.5 400.6 136.3 402.7Q137.2 404.8 137.2 407.8L137.2 407.8L137.2 409.2L120.3 409.2L120.3 406.3L133.8 406.3Q133.8 404.5 133.0 403.0Q132.3 401.6 130.9 400.7Q129.6 399.9 127.8 399.9L127.8 399.9Q125.8 399.9 124.3 400.9Q122.9 401.9 122.1 403.5Q121.3 405.0 121.3 406.8L121.3 406.8L121.3 408.8Q121.3 411.2 122.2 413.0Q123.0 414.7 124.6 415.6Q126.1 416.4 128.1 416.4L128.1 416.4Q129.4 416.4 130.5 416.1Q131.6 415.7 132.4 414.9Q133.2 414.2 133.6 413.0L133.6 413.0L136.8 413.9Q136.3 415.6 135.1 416.8Q133.9 418.1 132.1 418.8Q130.3 419.5 128.1 419.5ZM146.0 419L142.7 419L142.7 389.9L146.1 389.9L146.1 400.6L146.4 400.6Q146.7 400.1 147.4 399.2Q148.1 398.3 149.3 397.6Q150.5 396.9 152.7 396.9L152.7 396.9Q155.4 396.9 157.5 398.3Q159.6 399.7 160.8 402.2Q162.0 404.7 162.0 408.1L162.0 408.1Q162.0 411.6 160.8 414.1Q159.6 416.7 157.5 418.1Q155.5 419.5 152.7 419.5L152.7 419.5Q150.6 419.5 149.4 418.8Q148.1 418.0 147.4 417.1Q146.7 416.2 146.4 415.6L146.4 415.6L146.0 415.6L146.0 419ZM146.0 408.1L146.0 408.1Q146.0 410.6 146.7 412.4Q147.5 414.3 148.9 415.4Q150.3 416.4 152.3 416.4L152.3 416.4Q154.4 416.4 155.8 415.3Q157.2 414.2 157.9 412.3Q158.6 410.4 158.6 408.1L158.6 408.1Q158.6 405.8 157.9 403.9Q157.2 402.1 155.8 401.0Q154.4 399.9 152.3 399.9L152.3 399.9Q150.2 399.9 148.8 400.9Q147.4 402.0 146.7 403.8Q146.0 405.6 146.0 408.1Z M188.6 419.4L188.6 419.4Q185.8 419.4 183.7 418.3Q181.6 417.3 180.5 415.5Q179.4 413.6 179.4 411.3L179.4 411.3Q179.4 409.5 180.1 408.0Q180.9 406.6 182.3 405.4Q183.7 404.2 185.5 403.0L185.5 403.0L189.7 399.9Q190.9 399.0 191.6 398.1Q192.4 397.2 192.4 395.7L192.4 395.7Q192.4 394.6 191.4 393.6Q190.4 392.5 188.9 392.5L188.9 392.5Q187.8 392.5 186.9 393.1Q186.1 393.6 185.6 394.5Q185.1 395.4 185.1 396.3L185.1 396.3Q185.1 397.3 185.7 398.3Q186.2 399.4 187.1 400.5Q188.0 401.6 188.9 402.7L188.9 402.7L202.3 419L198.2 419L187.2 405.7Q185.7 403.9 184.4 402.4Q183.2 400.8 182.4 399.4Q181.7 397.9 181.7 396.2L181.7 396.2Q181.7 394.3 182.6 392.8Q183.5 391.3 185.0 390.5Q186.6 389.6 188.8 389.6L188.8 389.6Q190.9 389.6 192.5 390.5Q194.1 391.3 194.9 392.7Q195.8 394.1 195.8 395.7L195.8 395.7Q195.8 397.8 194.8 399.3Q193.7 400.9 191.9 402.2L191.9 402.2L186.1 406.5Q184.2 407.9 183.5 409.3Q182.8 410.7 182.8 411.3L182.8 411.3Q182.8 412.6 183.5 413.8Q184.2 415.0 185.5 415.7Q186.8 416.4 188.5 416.4L188.5 416.4Q190.2 416.4 191.7 415.7Q193.3 415.0 194.6 413.7Q195.8 412.4 196.6 410.5Q197.3 408.6 197.3 406.3L197.3 406.3L200.6 406.3Q200.6 409.2 199.9 411.0Q199.2 412.8 198.4 413.9Q197.6 414.9 197.0 415.4L197.0 415.4Q196.9 415.6 196.7 415.8Q196.6 416.1 196.4 416.3L196.4 416.3Q195.0 417.8 192.9 418.6Q190.7 419.4 188.6 419.4Z M217.7 419L217.7 389.9L221.9 389.9L231.8 414.1L232.1 414.1L242.0 389.9L246.2 389.9L246.2 419L242.9 419L242.9 396.9L242.6 396.9L233.5 419L230.3 419L221.3 396.9L221.0 396.9L221.0 419L217.7 419ZM261.6 419.5L261.6 419.5Q258.7 419.5 256.5 418.0Q254.2 416.6 253.0 414.1Q251.8 411.6 251.8 408.2L251.8 408.2Q251.8 404.8 253.0 402.3Q254.2 399.7 256.5 398.3Q258.7 396.9 261.6 396.9L261.6 396.9Q264.6 396.9 266.8 398.3Q269.0 399.7 270.3 402.3Q271.5 404.8 271.5 408.2L271.5 408.2Q271.5 411.6 270.3 414.1Q269.0 416.6 266.8 418.0Q264.6 419.5 261.6 419.5ZM261.6 416.4L261.6 416.4Q263.9 416.4 265.3 415.3Q266.8 414.1 267.5 412.3Q268.2 410.4 268.2 408.2L268.2 408.2Q268.2 406.0 267.5 404.1Q266.8 402.2 265.3 401.1Q263.9 399.9 261.6 399.9L261.6 399.9Q259.4 399.9 258.0 401.1Q256.5 402.2 255.8 404.1Q255.1 406.0 255.1 408.2L255.1 408.2Q255.1 410.4 255.8 412.3Q256.5 414.1 258.0 415.3Q259.4 416.4 261.6 416.4ZM280.3 419L277.1 419L277.1 389.9L280.5 389.9L280.5 400.6L280.7 400.6Q281.1 400.1 281.8 399.2Q282.4 398.3 283.7 397.6Q284.9 396.9 287.0 396.9L287.0 396.9Q289.8 396.9 291.9 398.3Q294.0 399.7 295.2 402.2Q296.4 404.7 296.4 408.1L296.4 408.1Q296.4 411.6 295.2 414.1Q294.0 416.7 291.9 418.1Q289.8 419.5 287.1 419.5L287.1 419.5Q285 419.5 283.7 418.8Q282.5 418.0 281.8 417.1Q281.1 416.2 280.7 415.6L280.7 415.6L280.3 415.6L280.3 419ZM280.4 408.1L280.4 408.1Q280.4 410.6 281.1 412.4Q281.8 414.3 283.2 415.4Q284.6 416.4 286.6 416.4L286.6 416.4Q288.8 416.4 290.2 415.3Q291.6 414.2 292.3 412.3Q293.0 410.4 293.0 408.1L293.0 408.1Q293.0 405.8 292.3 403.9Q291.6 402.1 290.2 401.0Q288.8 399.9 286.6 399.9L286.6 399.9Q284.6 399.9 283.2 400.9Q281.8 402.0 281.1 403.8Q280.4 405.6 280.4 408.1ZM304.8 419L301.5 419L301.5 397.2L304.8 397.2L304.8 419ZM303.2 393.5L303.2 393.5Q302.2 393.5 301.5 392.9Q300.8 392.2 300.8 391.3L300.8 391.3Q300.8 390.3 301.5 389.7Q302.2 389 303.2 389L303.2 389Q304.2 389 304.9 389.7Q305.6 390.3 305.6 391.3L305.6 391.3Q305.6 392.2 304.9 392.9Q304.2 393.5 303.2 393.5ZM311.0 389.9L314.3 389.9L314.3 419L311.0 419L311.0 389.9ZM329.6 419.5L329.6 419.5Q326.4 419.5 324.2 418.1Q321.9 416.7 320.7 414.1Q319.4 411.6 319.4 408.3L319.4 408.3Q319.4 404.9 320.7 402.3Q321.9 399.8 324.1 398.3Q326.3 396.9 329.3 396.9L329.3 396.9Q331.0 396.9 332.6 397.5Q334.3 398.0 335.7 399.3Q337.0 400.6 337.8 402.7Q338.6 404.8 338.6 407.8L338.6 407.8L338.6 409.2L321.8 409.2L321.8 406.3L335.2 406.3Q335.2 404.5 334.5 403.0Q333.8 401.6 332.4 400.7Q331.1 399.9 329.3 399.9L329.3 399.9Q327.3 399.9 325.8 400.9Q324.3 401.9 323.6 403.5Q322.8 405.0 322.8 406.8L322.8 406.8L322.8 408.8Q322.8 411.2 323.6 413.0Q324.5 414.7 326.0 415.6Q327.6 416.4 329.6 416.4L329.6 416.4Q330.9 416.4 332.0 416.1Q333.1 415.7 333.8 414.9Q334.6 414.2 335.1 413.0L335.1 413.0L338.3 413.9Q337.8 415.6 336.6 416.8Q335.4 418.1 333.6 418.8Q331.8 419.5 329.6 419.5Z M364.4 419L364.4 419L355.5 419L355.5 389.9L364.8 389.9Q369.1 389.9 372.1 391.6Q375.1 393.4 376.7 396.6Q378.3 399.9 378.3 404.4L378.3 404.4Q378.3 408.9 376.7 412.2Q375.1 415.5 372.0 417.2Q368.9 419 364.4 419ZM359.0 393.0L359.0 415.9L364.2 415.9Q367.8 415.9 370.2 414.5Q372.6 413.1 373.7 410.5Q374.9 407.9 374.9 404.4L374.9 404.4Q374.9 400.9 373.7 398.3Q372.6 395.8 370.3 394.4Q368.0 393.0 364.6 393.0L364.6 393.0L359.0 393.0ZM392.9 419.5L392.9 419.5Q389.7 419.5 387.5 418.1Q385.2 416.7 384.0 414.1Q382.7 411.6 382.7 408.3L382.7 408.3Q382.7 404.9 384.0 402.3Q385.2 399.8 387.4 398.3Q389.6 396.9 392.6 396.9L392.6 396.9Q394.3 396.9 395.9 397.5Q397.6 398.0 398.9 399.3Q400.3 400.6 401.1 402.7Q401.9 404.8 401.9 407.8L401.9 407.8L401.9 409.2L385.1 409.2L385.1 406.3L398.5 406.3Q398.5 404.5 397.8 403.0Q397.1 401.6 395.7 400.7Q394.4 399.9 392.6 399.9L392.6 399.9Q390.6 399.9 389.1 400.9Q387.6 401.9 386.9 403.5Q386.1 405.0 386.1 406.8L386.1 406.8L386.1 408.8Q386.1 411.2 386.9 413.0Q387.8 414.7 389.3 415.6Q390.9 416.4 392.9 416.4L392.9 416.4Q394.2 416.4 395.3 416.1Q396.4 415.7 397.1 414.9Q397.9 414.2 398.4 413.0L398.4 413.0L401.6 413.9Q401.1 415.6 399.9 416.8Q398.7 418.1 396.9 418.8Q395.1 419.5 392.9 419.5ZM420.6 397.2L424.2 397.2L416.1 419L412.7 419L404.7 397.2L408.3 397.2L414.3 414.6L414.5 414.6L420.6 397.2ZM437.0 419.5L437.0 419.5Q433.8 419.5 431.6 418.1Q429.3 416.7 428.0 414.1Q426.8 411.6 426.8 408.3L426.8 408.3Q426.8 404.9 428.0 402.3Q429.3 399.8 431.5 398.3Q433.7 396.9 436.6 396.9L436.6 396.9Q438.4 396.9 440.0 397.5Q441.7 398.0 443.0 399.3Q444.4 400.6 445.2 402.7Q446.0 404.8 446.0 407.8L446.0 407.8L446.0 409.2L429.2 409.2L429.2 406.3L442.6 406.3Q442.6 404.5 441.9 403.0Q441.2 401.6 439.8 400.7Q438.5 399.9 436.6 399.9L436.6 399.9Q434.6 399.9 433.2 400.9Q431.7 401.9 431.0 403.5Q430.2 405.0 430.2 406.8L430.2 406.8L430.2 408.8Q430.2 411.2 431.0 413.0Q431.9 414.7 433.4 415.6Q435.0 416.4 437.0 416.4L437.0 416.4Q438.3 416.4 439.4 416.1Q440.5 415.7 441.2 414.9Q442.0 414.2 442.4 413.0L442.4 413.0L445.7 413.9Q445.2 415.6 444.0 416.8Q442.8 418.1 441.0 418.8Q439.2 419.5 437.0 419.5ZM451.1 389.9L454.5 389.9L454.5 419L451.1 419L451.1 389.9ZM469.5 419.5L469.5 419.5Q466.5 419.5 464.3 418.0Q462.1 416.6 460.8 414.1Q459.6 411.6 459.6 408.2L459.6 408.2Q459.6 404.8 460.8 402.3Q462.1 399.7 464.3 398.3Q466.5 396.9 469.5 396.9L469.5 396.9Q472.4 396.9 474.7 398.3Q476.9 399.7 478.1 402.3Q479.4 404.8 479.4 408.2L479.4 408.2Q479.4 411.6 478.1 414.1Q476.9 416.6 474.7 418.0Q472.4 419.5 469.5 419.5ZM469.5 416.4L469.5 416.4Q471.7 416.4 473.2 415.3Q474.6 414.1 475.3 412.3Q476.0 410.4 476.0 408.2L476.0 408.2Q476.0 406.0 475.3 404.1Q474.6 402.2 473.2 401.1Q471.7 399.9 469.5 399.9L469.5 399.9Q467.2 399.9 465.8 401.1Q464.3 402.2 463.7 404.1Q463.0 406.0 463.0 408.2L463.0 408.2Q463.0 410.4 463.7 412.3Q464.3 414.1 465.8 415.3Q467.2 416.4 469.5 416.4ZM487.8 427.2L484.5 427.2L484.5 397.2L487.7 397.2L487.7 400.6L488.1 400.6Q488.5 400.1 489.2 399.2Q489.8 398.3 491.1 397.6Q492.3 396.9 494.4 396.9L494.4 396.9Q497.2 396.9 499.3 398.3Q501.4 399.7 502.6 402.2Q503.8 404.7 503.8 408.1L503.8 408.1Q503.8 411.6 502.6 414.1Q501.4 416.7 499.3 418.1Q497.2 419.5 494.5 419.5L494.5 419.5Q492.4 419.5 491.1 418.8Q489.9 418.0 489.2 417.1Q488.5 416.2 488.1 415.6L488.1 415.6L487.8 415.6L487.8 427.2ZM487.8 408.1L487.8 408.1Q487.8 410.6 488.5 412.4Q489.2 414.3 490.6 415.4Q492.0 416.4 494.0 416.4L494.0 416.4Q496.1 416.4 497.5 415.3Q499.0 414.2 499.7 412.3Q500.4 410.4 500.4 408.1L500.4 408.1Q500.4 405.8 499.7 403.9Q499.0 402.1 497.6 401.0Q496.2 399.9 494.0 399.9L494.0 399.9Q492.0 399.9 490.6 400.9Q489.2 402.0 488.5 403.8Q487.8 405.6 487.8 408.1ZM518.0 419.5L518.0 419.5Q514.9 419.5 512.6 418.1Q510.3 416.7 509.1 414.1Q507.8 411.6 507.8 408.3L507.8 408.3Q507.8 404.9 509.1 402.3Q510.3 399.8 512.5 398.3Q514.7 396.9 517.7 396.9L517.7 396.9Q519.4 396.9 521.0 397.5Q522.7 398.0 524.1 399.3Q525.4 400.6 526.2 402.7Q527.0 404.8 527.0 407.8L527.0 407.8L527.0 409.2L510.2 409.2L510.2 406.3L523.6 406.3Q523.6 404.5 522.9 403.0Q522.2 401.6 520.8 400.7Q519.5 399.9 517.7 399.9L517.7 399.9Q515.7 399.9 514.2 400.9Q512.8 401.9 512.0 403.5Q511.2 405.0 511.2 406.8L511.2 406.8L511.2 408.8Q511.2 411.2 512.1 413.0Q512.9 414.7 514.4 415.6Q516.0 416.4 518.0 416.4L518.0 416.4Q519.3 416.4 520.4 416.1Q521.5 415.7 522.3 414.9Q523.0 414.2 523.5 413.0L523.5 413.0L526.7 413.9Q526.2 415.6 525.0 416.8Q523.8 418.1 522.0 418.8Q520.2 419.5 518.0 419.5ZM535.5 419L532.2 419L532.2 397.2L535.4 397.2L535.4 400.5L535.6 400.5Q536.2 398.9 537.8 397.8Q539.3 396.8 541.3 396.8L541.3 396.8Q541.7 396.8 542.2 396.9Q542.8 396.9 543.1 396.9L543.1 396.9L543.1 400.3Q542.9 400.3 542.3 400.2Q541.7 400.1 541.0 400.1L541.0 400.1Q539.4 400.1 538.2 400.7Q536.9 401.4 536.2 402.6Q535.5 403.7 535.5 405.2L535.5 405.2L535.5 419Z "/></g><mask id="satori_om-id-4"><rect x="80" y="529" width="1040" height="29" fill="#fff"/></mask><mask id="satori_om-id-4-0"><rect x="80" y="530" width="298" height="27" fill="#fff"/></mask><mask id="satori_om-id-4-0-0"><rect x="80" y="539" width="10" height="10" fill="#fff"/></mask><path x="80" y="539" width="10" height="10" fill="#C05728" d="M85,539 h0 a5,5 0 0 1 5,5 v0 a5,5 0 0 1 -5,5 h0 a5,5 0 0 1 -5,-5 v0 a5,5 0 0 1 5,-5"/><mask id="satori_om-id-4-0-1"><rect x="104" y="530" width="274" height="27" fill="#fff"/></mask><g  ><path fill="#7C7268" d="M107.9 551L105.9 551L105.9 535L115.5 535L115.5 536.7L107.9 536.7L107.9 542.1L114.8 542.1L114.8 543.8L107.9 543.8L107.9 551ZM124.7 551L122.8 551L122.8 535L128.2 535Q130.1 535 131.3 535.6Q132.5 536.3 133.1 537.4Q133.6 538.5 133.6 539.9L133.6 539.9Q133.6 541.3 133.1 542.4Q132.5 543.5 131.3 544.1Q130.1 544.8 128.2 544.8L128.2 544.8L123.9 544.8L123.9 543L128.2 543Q129.5 543 130.2 542.6Q131.0 542.3 131.4 541.6Q131.7 540.9 131.7 539.9L131.7 539.9Q131.7 538.9 131.4 538.2Q131.0 537.5 130.2 537.1Q129.4 536.7 128.1 536.7L128.1 536.7L124.7 536.7L124.7 551ZM128.1 543.8L130.3 543.8L134.3 551L132.0 551L128.1 543.8ZM150.6 551L140.8 551L140.8 535L150.5 535L150.5 536.7L142.8 536.7L142.8 542.1L150.0 542.1L150.0 543.8L142.8 543.8L142.8 549.3L150.6 549.3L150.6 551ZM167.7 551L157.9 551L157.9 535L167.6 535L167.6 536.7L159.9 536.7L159.9 542.1L167.1 542.1L167.1 543.8L159.9 543.8L159.9 549.3L167.7 549.3L167.7 551ZM184.4 551L175.1 551L175.1 535L177.0 535L177.0 549.3L184.4 549.3L184.4 551ZM197.8 537.5L193.1 551L191.0 551L196.9 535L198.9 535L204.8 551L202.7 551L198.0 537.5L197.8 537.5ZM193.8 546.5L193.8 544.8L202.0 544.8L202.0 546.5L193.8 546.5ZM222.0 535L223.9 535L223.9 551L222.0 551L213.3 538.4L213.2 538.4L213.2 551L211.2 551L211.2 535L213.1 535L221.9 547.6L222.0 547.6L222.0 535ZM244.6 540L244.6 540L242.7 540Q242.5 539.2 242.1 538.5Q241.7 537.9 241.1 537.5Q240.5 537.0 239.7 536.8Q239.0 536.6 238.2 536.6L238.2 536.6Q236.7 536.6 235.6 537.3Q234.4 538.1 233.7 539.5Q233.0 540.9 233.0 543L233.0 543Q233.0 545.1 233.7 546.5Q234.4 547.9 235.6 548.7Q236.7 549.4 238.2 549.4L238.2 549.4Q239.0 549.4 239.7 549.2Q240.5 549.0 241.1 548.5Q241.7 548.1 242.1 547.5Q242.5 546.8 242.7 546L242.7 546L244.6 546Q244.4 547.2 243.8 548.2Q243.3 549.2 242.4 549.8Q241.5 550.5 240.5 550.9Q239.4 551.2 238.2 551.2L238.2 551.2Q236.1 551.2 234.5 550.2Q233.0 549.2 232.0 547.4Q231.1 545.5 231.1 543L231.1 543Q231.1 540.5 232.0 538.6Q233.0 536.8 234.5 535.8Q236.1 534.8 238.2 534.8L238.2 534.8Q239.4 534.8 240.5 535.1Q241.5 535.5 242.4 536.2Q243.3 536.8 243.8 537.8Q244.4 538.8 244.6 540ZM261.5 551L251.7 551L251.7 535L261.4 535L261.4 536.7L253.6 536.7L253.6 542.1L260.9 542.1L260.9 543.8L253.6 543.8L253.6 549.3L261.5 549.3L261.5 551Z M279.1 545.4L279.1 545.4Q278.5 545.4 278.1 545.0Q277.7 544.6 277.7 544L277.7 544Q277.7 543.4 278.1 543.0Q278.5 542.6 279.1 542.6L279.1 542.6Q279.6 542.6 280.1 543.0Q280.5 543.4 280.5 544L280.5 544Q280.5 544.4 280.3 544.7Q280.1 545.0 279.8 545.2Q279.5 545.4 279.1 545.4Z M298.1 535L300.1 535L300.1 551L298.1 551L298.1 535ZM312.1 536.7L307.0 536.7L307.0 535L319.0 535L319.0 536.7L314.0 536.7L314.0 551L312.1 551L312.1 536.7ZM329.6 537.5L324.8 551L322.8 551L328.6 535L330.6 535L336.5 551L334.5 551L329.7 537.5L329.6 537.5ZM325.5 546.5L325.5 544.8L333.7 544.8L333.7 546.5L325.5 546.5ZM352.3 551L343.0 551L343.0 535L344.9 535L344.9 549.3L352.3 549.3L352.3 551ZM363.0 544.4L357.2 535L359.4 535L363.8 542.5L364.0 542.5L368.5 535L370.7 535L364.9 544.4L364.9 551L363.0 551L363.0 544.4Z "/></g><mask id="satori_om-id-4-1"><rect x="839" y="529" width="281" height="29" fill="#fff"/></mask><g  ><path fill="#7C7268" d="M841.1 552L841.1 534.5L843.6 534.5L849.6 549.0L849.8 549.0L855.7 534.5L858.2 534.5L858.2 552L856.3 552L856.3 538.7L856.1 538.7L850.6 552L848.7 552L843.3 538.7L843.1 538.7L843.1 552L841.1 552ZM867.5 552.3L867.5 552.3Q865.7 552.3 864.4 551.4Q863.1 550.6 862.3 549.1Q861.6 547.6 861.6 545.5L861.6 545.5Q861.6 543.5 862.3 542.0Q863.1 540.4 864.4 539.6Q865.7 538.7 867.5 538.7L867.5 538.7Q869.3 538.7 870.6 539.6Q871.9 540.4 872.7 542.0Q873.4 543.5 873.4 545.5L873.4 545.5Q873.4 547.6 872.7 549.1Q871.9 550.6 870.6 551.4Q869.3 552.3 867.5 552.3ZM867.5 550.5L867.5 550.5Q868.8 550.5 869.7 549.8Q870.6 549.1 871.0 548.0Q871.4 546.8 871.4 545.5L871.4 545.5Q871.4 544.2 871.0 543.1Q870.6 541.9 869.7 541.2Q868.8 540.5 867.5 540.5L867.5 540.5Q866.2 540.5 865.3 541.2Q864.4 541.9 864.0 543.1Q863.6 544.2 863.6 545.5L863.6 545.5Q863.6 546.8 864.0 548.0Q864.4 549.1 865.3 549.8Q866.2 550.5 867.5 550.5ZM881.4 552.3L881.4 552.3Q879.8 552.3 878.6 551.4Q877.3 550.6 876.6 549.1Q875.9 547.6 875.9 545.5L875.9 545.5Q875.9 543.4 876.6 541.9Q877.3 540.4 878.6 539.6Q879.8 538.7 881.5 538.7L881.5 538.7Q882.8 538.7 883.5 539.2Q884.2 539.6 884.6 540.1Q885.0 540.6 885.3 541.0L885.3 541.0L885.4 541.0L885.4 534.5L887.4 534.5L887.4 552L885.5 552L885.5 550.0L885.3 550.0Q885.0 550.3 884.6 550.9Q884.2 551.4 883.5 551.9Q882.7 552.3 881.4 552.3ZM881.7 550.5L881.7 550.5Q882.9 550.5 883.8 549.8Q884.6 549.2 885.0 548.1Q885.5 546.9 885.5 545.5L885.5 545.5Q885.5 544.0 885.0 542.9Q884.6 541.8 883.8 541.2Q882.9 540.5 881.7 540.5L881.7 540.5Q880.4 540.5 879.6 541.2Q878.7 541.8 878.3 543.0Q877.9 544.1 877.9 545.5L877.9 545.5Q877.9 546.9 878.3 548.0Q878.8 549.1 879.6 549.8Q880.5 550.5 881.7 550.5ZM896.9 552.3L896.9 552.3Q895.0 552.3 893.6 551.4Q892.3 550.6 891.5 549.1Q890.8 547.6 890.8 545.6L890.8 545.6Q890.8 543.5 891.5 542.0Q892.3 540.5 893.6 539.6Q894.9 538.7 896.7 538.7L896.7 538.7Q897.7 538.7 898.7 539.1Q899.7 539.4 900.5 540.2Q901.3 540.9 901.8 542.2Q902.3 543.5 902.3 545.3L902.3 545.3L902.3 546.1L892.2 546.1L892.2 544.4L900.3 544.4Q900.3 543.3 899.8 542.4Q899.4 541.6 898.6 541.0Q897.8 540.5 896.7 540.5L896.7 540.5Q895.5 540.5 894.6 541.1Q893.7 541.7 893.3 542.7Q892.8 543.6 892.8 544.7L892.8 544.7L892.8 545.9Q892.8 547.3 893.3 548.4Q893.8 549.4 894.7 549.9Q895.7 550.5 896.9 550.5L896.9 550.5Q897.7 550.5 898.3 550.2Q899.0 550.0 899.4 549.6Q899.9 549.1 900.2 548.4L900.2 548.4L902.1 549.0Q901.8 550.0 901.1 550.7Q900.3 551.4 899.3 551.9Q898.2 552.3 896.9 552.3ZM907.4 552L905.4 552L905.4 538.9L907.3 538.9L907.3 540.9L907.5 540.9Q907.8 539.9 908.8 539.3Q909.7 538.7 910.9 538.7L910.9 538.7Q911.1 538.7 911.4 538.7Q911.8 538.7 911.9 538.7L911.9 538.7L911.9 540.8Q911.8 540.8 911.5 540.7Q911.1 540.6 910.7 540.6L910.7 540.6Q909.7 540.6 909.0 541.0Q908.2 541.4 907.8 542.1Q907.4 542.8 907.4 543.7L907.4 543.7L907.4 552ZM916.3 544.1L916.3 544.1L916.3 552L914.3 552L914.3 538.9L916.3 538.9L916.3 541.0L916.4 541.0Q916.9 540.0 917.8 539.3Q918.8 538.7 920.2 538.7L920.2 538.7Q921.6 538.7 922.6 539.3Q923.6 539.8 924.1 540.9Q924.7 542.0 924.7 543.7L924.7 543.7L924.7 552L922.7 552L922.7 543.8Q922.7 542.3 921.9 541.4Q921.1 540.5 919.7 540.5L919.7 540.5Q918.7 540.5 917.9 541.0Q917.2 541.4 916.8 542.2Q916.3 543.0 916.3 544.1Z M940.0 552L938.1 552L934.1 538.9L936.2 538.9L939.0 548.9L939.2 548.9L942.0 538.9L944.1 538.9L946.9 548.9L947 548.9L949.8 538.9L951.9 538.9L948.0 552L946.0 552L943.1 541.9L942.9 541.9L940.0 552ZM959.6 552.3L959.6 552.3Q957.8 552.3 956.4 551.4Q955.0 550.6 954.3 549.1Q953.5 547.6 953.5 545.6L953.5 545.6Q953.5 543.5 954.3 542.0Q955.0 540.5 956.3 539.6Q957.7 538.7 959.4 538.7L959.4 538.7Q960.5 538.7 961.5 539.1Q962.5 539.4 963.3 540.2Q964.1 540.9 964.6 542.2Q965.1 543.5 965.1 545.3L965.1 545.3L965.1 546.1L955.0 546.1L955.0 544.4L963.0 544.4Q963.0 543.3 962.6 542.4Q962.1 541.6 961.3 541.0Q960.5 540.5 959.4 540.5L959.4 540.5Q958.2 540.5 957.4 541.1Q956.5 541.7 956.0 542.7Q955.6 543.6 955.6 544.7L955.6 544.7L955.6 545.9Q955.6 547.3 956.1 548.4Q956.6 549.4 957.5 549.9Q958.4 550.5 959.6 550.5L959.6 550.5Q960.4 550.5 961.1 550.2Q961.7 550.0 962.2 549.6Q962.7 549.1 962.9 548.4L962.9 548.4L964.9 549.0Q964.6 550.0 963.8 550.7Q963.1 551.4 962.0 551.9Q961.0 552.3 959.6 552.3ZM970.4 552L968.4 552L968.4 534.5L970.4 534.5L970.4 541.0L970.6 541.0Q970.8 540.6 971.2 540.1Q971.6 539.6 972.4 539.2Q973.1 538.7 974.4 538.7L974.4 538.7Q976.0 538.7 977.3 539.6Q978.6 540.4 979.3 541.9Q980.0 543.4 980.0 545.5L980.0 545.5Q980.0 547.6 979.3 549.1Q978.6 550.6 977.3 551.4Q976.0 552.3 974.4 552.3L974.4 552.3Q973.1 552.3 972.4 551.9Q971.6 551.4 971.2 550.9Q970.8 550.3 970.6 550.0L970.6 550.0L970.4 550.0L970.4 552ZM970.4 545.5L970.4 545.5Q970.4 546.9 970.8 548.1Q971.3 549.2 972.1 549.8Q972.9 550.5 974.1 550.5L974.1 550.5Q975.4 550.5 976.2 549.8Q977.1 549.1 977.5 548.0Q978.0 546.9 978.0 545.5L978.0 545.5Q978.0 544.1 977.5 543.0Q977.1 541.8 976.3 541.2Q975.4 540.5 974.1 540.5L974.1 540.5Q972.9 540.5 972.1 541.2Q971.2 541.8 970.8 542.9Q970.4 544.0 970.4 545.5ZM992.3 541.8L992.3 541.8L990.5 542.4Q990.3 541.9 990.0 541.5Q989.7 541.0 989.1 540.8Q988.5 540.5 987.7 540.5L987.7 540.5Q986.5 540.5 985.7 541.0Q984.9 541.6 984.9 542.4L984.9 542.4Q984.9 543.2 985.4 543.6Q986.0 544.0 987.1 544.3L987.1 544.3L989.1 544.8Q990.8 545.2 991.7 546.1Q992.5 547.0 992.5 548.4L992.5 548.4Q992.5 549.5 991.9 550.4Q991.3 551.3 990.1 551.8Q989.0 552.3 987.4 552.3L987.4 552.3Q985.4 552.3 984.1 551.4Q982.8 550.5 982.5 548.9L982.5 548.9L984.4 548.4Q984.6 549.4 985.4 550.0Q986.2 550.5 987.4 550.5L987.4 550.5Q988.8 550.5 989.6 549.9Q990.5 549.3 990.5 548.5L990.5 548.5Q990.5 547.8 990.0 547.3Q989.5 546.8 988.5 546.6L988.5 546.6L986.3 546.1Q984.5 545.7 983.7 544.8Q982.9 543.9 982.9 542.5L982.9 542.5Q982.9 541.4 983.5 540.6Q984.1 539.7 985.2 539.2Q986.3 538.7 987.7 538.7L987.7 538.7Q989.6 538.7 990.7 539.6Q991.8 540.4 992.3 541.8ZM997.6 552L995.6 552L995.6 538.9L997.6 538.9L997.6 552ZM996.6 536.7L996.6 536.7Q996.0 536.7 995.6 536.3Q995.2 535.9 995.2 535.4L995.2 535.4Q995.2 534.8 995.6 534.4Q996.0 534 996.6 534L996.6 534Q997.2 534 997.6 534.4Q998.0 534.8 998.0 535.4L998.0 535.4Q998.0 535.9 997.6 536.3Q997.2 536.7 996.6 536.7ZM1000.2 538.9L1007.0 538.9L1007.0 540.6L1000.2 540.6L1000.2 538.9ZM1002.2 548.8L1002.2 535.8L1004.2 535.8L1004.2 548.3Q1004.2 549.1 1004.4 549.5Q1004.7 549.9 1005.1 550.1Q1005.5 550.2 1005.9 550.2L1005.9 550.2Q1006.2 550.2 1006.5 550.2Q1006.7 550.2 1006.8 550.1L1006.8 550.1L1007.2 551.9Q1007 552.0 1006.6 552.1Q1006.3 552.2 1005.7 552.2L1005.7 552.2Q1004.9 552.2 1004.0 551.8Q1003.2 551.4 1002.7 550.7Q1002.2 549.9 1002.2 548.8L1002.2 548.8ZM1015.4 552.3L1015.4 552.3Q1013.5 552.3 1012.1 551.4Q1010.7 550.6 1010.0 549.1Q1009.3 547.6 1009.3 545.6L1009.3 545.6Q1009.3 543.5 1010.0 542.0Q1010.7 540.5 1012.0 539.6Q1013.4 538.7 1015.1 538.7L1015.1 538.7Q1016.2 538.7 1017.2 539.1Q1018.2 539.4 1019.0 540.2Q1019.8 540.9 1020.3 542.2Q1020.8 543.5 1020.8 545.3L1020.8 545.3L1020.8 546.1L1010.7 546.1L1010.7 544.4L1018.7 544.4Q1018.7 543.3 1018.3 542.4Q1017.8 541.6 1017.0 541.0Q1016.2 540.5 1015.1 540.5L1015.1 540.5Q1013.9 540.5 1013.1 541.1Q1012.2 541.7 1011.7 542.7Q1011.3 543.6 1011.3 544.7L1011.3 544.7L1011.3 545.9Q1011.3 547.3 1011.8 548.4Q1012.3 549.4 1013.2 549.9Q1014.1 550.5 1015.4 550.5L1015.4 550.5Q1016.1 550.5 1016.8 550.2Q1017.4 550.0 1017.9 549.6Q1018.4 549.1 1018.6 548.4L1018.6 548.4L1020.6 549.0Q1020.3 550.0 1019.5 550.7Q1018.8 551.4 1017.7 551.9Q1016.7 552.3 1015.4 552.3ZM1033.1 541.8L1033.1 541.8L1031.3 542.4Q1031.1 541.9 1030.8 541.5Q1030.5 541.0 1029.9 540.8Q1029.4 540.5 1028.5 540.5L1028.5 540.5Q1027.3 540.5 1026.5 541.0Q1025.7 541.6 1025.7 542.4L1025.7 542.4Q1025.7 543.2 1026.2 543.6Q1026.8 544.0 1027.9 544.3L1027.9 544.3L1029.9 544.8Q1031.6 545.2 1032.5 546.1Q1033.4 547.0 1033.4 548.4L1033.4 548.4Q1033.4 549.5 1032.7 550.4Q1032.1 551.3 1030.9 551.8Q1029.8 552.3 1028.2 552.3L1028.2 552.3Q1026.2 552.3 1024.9 551.4Q1023.6 550.5 1023.3 548.9L1023.3 548.9L1025.2 548.4Q1025.4 549.4 1026.2 550.0Q1027.0 550.5 1028.2 550.5L1028.2 550.5Q1029.6 550.5 1030.4 549.9Q1031.3 549.3 1031.3 548.5L1031.3 548.5Q1031.3 547.8 1030.8 547.3Q1030.3 546.8 1029.3 546.6L1029.3 546.6L1027.1 546.1Q1025.3 545.7 1024.5 544.8Q1023.7 543.9 1023.7 542.5L1023.7 542.5Q1023.7 541.4 1024.3 540.6Q1024.9 539.7 1026.0 539.2Q1027.1 538.7 1028.5 538.7L1028.5 538.7Q1030.4 538.7 1031.5 539.6Q1032.6 540.4 1033.1 541.8Z M1048.7 552.2L1048.7 552.2Q1046.9 552.2 1045.7 551.6Q1044.4 551.0 1043.8 549.9Q1043.1 548.8 1043.1 547.4L1043.1 547.4Q1043.1 546.3 1043.6 545.4Q1044.0 544.6 1044.9 543.8Q1045.7 543.1 1046.8 542.4L1046.8 542.4L1049.3 540.5Q1050.0 540.0 1050.5 539.5Q1050.9 538.9 1050.9 538.0L1050.9 538.0Q1050.9 537.4 1050.3 536.7Q1049.7 536.1 1048.8 536.1L1048.8 536.1Q1048.1 536.1 1047.6 536.5Q1047.1 536.8 1046.8 537.3Q1046.5 537.8 1046.5 538.4L1046.5 538.4Q1046.5 539.0 1046.9 539.6Q1047.2 540.2 1047.7 540.9Q1048.3 541.5 1048.8 542.2L1048.8 542.2L1056.8 552L1054.4 552L1047.8 544.0Q1046.9 542.9 1046.1 542.0Q1045.4 541.1 1044.9 540.2Q1044.5 539.4 1044.5 538.3L1044.5 538.3Q1044.5 537.2 1045.0 536.3Q1045.5 535.4 1046.5 534.9Q1047.4 534.4 1048.7 534.4L1048.7 534.4Q1050.0 534.4 1051.0 534.9Q1051.9 535.4 1052.4 536.2Q1053.0 537.1 1053.0 538.0L1053.0 538.0Q1053.0 539.3 1052.3 540.2Q1051.7 541.1 1050.6 541.9L1050.6 541.9L1047.2 544.5Q1046.0 545.4 1045.6 546.2Q1045.1 547.0 1045.1 547.4L1045.1 547.4Q1045.1 548.2 1045.6 548.9Q1046 549.6 1046.8 550.0Q1047.6 550.5 1048.6 550.5L1048.6 550.5Q1049.6 550.5 1050.5 550.0Q1051.5 549.6 1052.2 548.8Q1053.0 548.0 1053.4 546.9Q1053.9 545.8 1053.9 544.4L1053.9 544.4L1055.8 544.4Q1055.8 546.1 1055.4 547.2Q1055.0 548.3 1054.5 548.9Q1054.0 549.5 1053.7 549.9L1053.7 549.9Q1053.6 550.0 1053.5 550.1Q1053.4 550.2 1053.3 550.4L1053.3 550.4Q1052.5 551.3 1051.2 551.8Q1049.9 552.2 1048.7 552.2Z M1069.7 552.3L1069.7 552.3Q1068.4 552.3 1067.4 551.8Q1066.4 551.4 1065.8 550.5Q1065.2 549.6 1065.2 548.3L1065.2 548.3Q1065.2 547.2 1065.6 546.5Q1066.1 545.8 1066.8 545.4Q1067.6 545.0 1068.5 544.8Q1069.4 544.6 1070.3 544.4L1070.3 544.4Q1071.5 544.3 1072.2 544.2Q1073.0 544.1 1073.3 543.9Q1073.6 543.7 1073.6 543.2L1073.6 543.2L1073.6 543.2Q1073.6 541.9 1073.0 541.2Q1072.3 540.5 1070.9 540.5L1070.9 540.5Q1069.4 540.5 1068.6 541.1Q1067.8 541.8 1067.5 542.5L1067.5 542.5L1065.6 541.8Q1066.1 540.6 1066.9 539.9Q1067.8 539.3 1068.8 539.0Q1069.8 538.7 1070.8 538.7L1070.8 538.7Q1071.4 538.7 1072.3 538.9Q1073.1 539.0 1073.9 539.5Q1074.6 540.0 1075.1 540.9Q1075.7 541.8 1075.7 543.4L1075.7 543.4L1075.7 552L1073.6 552L1073.6 550.2L1073.5 550.2Q1073.3 550.7 1072.9 551.1Q1072.4 551.6 1071.6 552.0Q1070.8 552.3 1069.7 552.3ZM1070.0 550.5L1070.0 550.5Q1071.2 550.5 1072.0 550.0Q1072.8 549.6 1073.2 548.8Q1073.6 548.1 1073.6 547.3L1073.6 547.3L1073.6 545.4Q1073.5 545.6 1073.1 545.7Q1072.7 545.8 1072.1 545.9Q1071.5 546 1071.0 546.1Q1070.5 546.1 1070.2 546.2L1070.2 546.2Q1069.4 546.3 1068.7 546.5Q1068.0 546.7 1067.6 547.2Q1067.2 547.6 1067.2 548.4L1067.2 548.4Q1067.2 549.4 1068.0 550.0Q1068.8 550.5 1070.0 550.5ZM1081.4 556.9L1079.3 556.9L1079.3 538.9L1081.3 538.9L1081.3 541.0L1081.5 541.0Q1081.7 540.6 1082.1 540.1Q1082.5 539.6 1083.3 539.2Q1084.0 538.7 1085.3 538.7L1085.3 538.7Q1087.0 538.7 1088.2 539.6Q1089.5 540.4 1090.2 541.9Q1090.9 543.4 1090.9 545.5L1090.9 545.5Q1090.9 547.6 1090.2 549.1Q1089.5 550.6 1088.2 551.4Q1087.0 552.3 1085.3 552.3L1085.3 552.3Q1084.1 552.3 1083.3 551.9Q1082.6 551.4 1082.2 550.9Q1081.7 550.3 1081.5 550.0L1081.5 550.0L1081.4 550.0L1081.4 556.9ZM1081.3 545.5L1081.3 545.5Q1081.3 546.9 1081.8 548.1Q1082.2 549.2 1083.0 549.8Q1083.9 550.5 1085.1 550.5L1085.1 550.5Q1086.3 550.5 1087.2 549.8Q1088.0 549.1 1088.5 548.0Q1088.9 546.9 1088.9 545.5L1088.9 545.5Q1088.9 544.1 1088.5 543.0Q1088.0 541.8 1087.2 541.2Q1086.3 540.5 1085.1 540.5L1085.1 540.5Q1083.8 540.5 1083.0 541.2Q1082.2 541.8 1081.7 542.9Q1081.3 544.0 1081.3 545.5ZM1096.0 556.9L1094.0 556.9L1094.0 538.9L1095.9 538.9L1095.9 541.0L1096.1 541.0Q1096.4 540.6 1096.8 540.1Q1097.2 539.6 1097.9 539.2Q1098.7 538.7 1099.9 538.7L1099.9 538.7Q1101.6 538.7 1102.8 539.6Q1104.1 540.4 1104.8 541.9Q1105.5 543.4 1105.5 545.5L1105.5 545.5Q1105.5 547.6 1104.8 549.1Q1104.1 550.6 1102.9 551.4Q1101.6 552.3 1100.0 552.3L1100.0 552.3Q1098.7 552.3 1097.9 551.9Q1097.2 551.4 1096.8 550.9Q1096.4 550.3 1096.1 550.0L1096.1 550.0L1096.0 550.0L1096.0 556.9ZM1095.9 545.5L1095.9 545.5Q1095.9 546.9 1096.4 548.1Q1096.8 549.2 1097.6 549.8Q1098.5 550.5 1099.7 550.5L1099.7 550.5Q1101.0 550.5 1101.8 549.8Q1102.7 549.1 1103.1 548.0Q1103.5 546.9 1103.5 545.5L1103.5 545.5Q1103.5 544.1 1103.1 543.0Q1102.7 541.8 1101.8 541.2Q1101.0 540.5 1099.7 540.5L1099.7 540.5Q1098.5 540.5 1097.6 541.2Q1096.8 541.8 1096.4 542.9Q1095.9 544.0 1095.9 545.5ZM1117.9 541.8L1117.9 541.8L1116.1 542.4Q1115.9 541.9 1115.6 541.5Q1115.2 541.0 1114.7 540.8Q1114.1 540.5 1113.2 540.5L1113.2 540.5Q1112.0 540.5 1111.2 541.0Q1110.4 541.6 1110.4 542.4L1110.4 542.4Q1110.4 543.2 1111.0 543.6Q1111.5 544.0 1112.7 544.3L1112.7 544.3L1114.6 544.8Q1116.4 545.2 1117.2 546.1Q1118.1 547.0 1118.1 548.4L1118.1 548.4Q1118.1 549.5 1117.5 550.4Q1116.8 551.3 1115.7 551.8Q1114.5 552.3 1113.0 552.3L1113.0 552.3Q1111.0 552.3 1109.7 551.4Q1108.4 550.5 1108.0 548.9L1108.0 548.9L1109.9 548.4Q1110.2 549.4 1111.0 550.0Q1111.7 550.5 1113.0 550.5L1113.0 550.5Q1114.4 550.5 1115.2 549.9Q1116.0 549.3 1116.0 548.5L1116.0 548.5Q1116.0 547.8 1115.5 547.3Q1115.1 546.8 1114.1 546.6L1114.1 546.6L1111.9 546.1Q1110.1 545.7 1109.3 544.8Q1108.4 543.9 1108.4 542.5L1108.4 542.5Q1108.4 541.4 1109.0 540.6Q1109.7 539.7 1110.8 539.2Q1111.8 538.7 1113.2 538.7L1113.2 538.7Q1115.2 538.7 1116.3 539.6Q1117.4 540.4 1117.9 541.8Z "/></g></svg>